<svg id="Calque_1" data-name="Calque 1" xmlns="http://www.w3.org/2000/svg" viewBox="0 0 320.53 459.12">
  <defs>
    <style>
      .cls-1, .cls-2, .cls-3, .cls-4, .cls-5 {
        fill: none;
        stroke: #d8d8d8;
      }

      .cls-1, .cls-2 {
        stroke-miterlimit: 5;
      }

      .cls-1 {
        stroke-width: 20px;
      }

      .cls-2, .cls-5 {
        stroke-linecap: round;
      }

      .cls-2 {
        stroke-width: 15px;
      }

      .cls-3, .cls-5 {
        stroke-linejoin: round;
      }

      .cls-3, .cls-4 {
        stroke-width: 12px;
      }

      .cls-4 {
        stroke-miterlimit: 10;
      }

      .cls-5 {
        stroke-width: 26px;
      }
    </style>
  </defs>
  <g>
    <path class="cls-1" d="M202,400.83a15.67,15.67,0,0,1,15.51,15L219.32,468c.28,8.24-3.1,9.29-7.52,2.32l-17.08-26.95c-4.42-7-12-7.19-16.77-.48l-20,27.91c-4.81,6.7-8.51,5.44-8.23-2.8l1.79-52.19a15.69,15.69,0,0,1,15.52-15Z" transform="translate(-108.14 -26)"/>
    <line class="cls-2" x1="92.88" y1="128.3" x2="158.87" y2="128.3"/>
    <line class="cls-2" x1="115.88" y1="180.11" x2="199.86" y2="180.11"/>
    <line class="cls-2" x1="44.89" y1="249.78" x2="92.88" y2="249.78"/>
    <line class="cls-2" x1="43.89" y1="214.94" x2="128.88" y2="214.94"/>
    <line class="cls-2" x1="160.87" y1="214.94" x2="198.86" y2="214.94"/>
    <line class="cls-2" x1="82.88" y1="180.11" x2="44.89" y2="180.11"/>
  </g>
  <g>
    <path class="cls-3" d="M301.54,134.72c1.31-3.62,4.62-4.35,7.35-1.62l13.49,13.5c2.72,2.72,2,6-1.63,7.34l-23.65,8.62c-3.61,1.32-5.49-.57-4.18-4.2Z" transform="translate(-108.14 -26)"/>
    <g>
      <path class="cls-4" d="M394.65,37.07c-.44.37-1.18,1-1.65,1.5l-.35.37-83.77,83.77a7,7,0,0,0,0,9.9l13.5,13.5a7,7,0,0,0,9.9,0l78.91-78.92c2.72-2.72,5.6-5.79,6.36-6.83A38.25,38.25,0,0,0,420,56.55l.47-1.14c.61-1.51,5.19-12.77-1.15-19.49-5.23-5.53-14.25-4.14-19-2.27l-1.93.76C396.77,35.5,395.1,36.7,394.65,37.07Z" transform="translate(-108.14 -26)"/>
      <line class="cls-4" x1="285.48" y1="11.98" x2="307.9" y2="36.35"/>
    </g>
  </g>
  <path class="cls-5" d="M276,116H131.14a10,10,0,0,0-10,10V391a10,10,0,0,0,10,10H328.08a10,10,0,0,0,10-10L338,181" transform="translate(-108.14 -26)"/>
</svg>
