<svg id="Calque_1" data-name="Calque 1" xmlns="http://www.w3.org/2000/svg" viewBox="0 0 314.22 493.12">
  <defs>
    <style>
      .cls-1 {
        fill: #d8d8d8;
      }

      .cls-2, .cls-3 {
        fill: none;
        stroke: #d8d8d8;
        stroke-miterlimit: 5;
      }

      .cls-2 {
        stroke-width: 20px;
      }

      .cls-3 {
        stroke-linecap: round;
        stroke-width: 15px;
      }
    </style>
  </defs>
  <g>
    <path class="cls-1" d="M377.25,35a10,10,0,0,1,10,10V369.48a10,10,0,0,1-10,10H135a10,10,0,0,1-10-10V45a10,10,0,0,1,10-10H377.25m0-26H135A36,36,0,0,0,99,45V369.48a36,36,0,0,0,36,36H377.25a36,36,0,0,0,36-36V45a36,36,0,0,0-36-36Z" transform="translate(-99.03 -9)"/>
    <path class="cls-2" d="M224.83,392.78a15.69,15.69,0,0,1,15.52,15L243,485c.29,8.24-3.1,9.29-7.51,2.32l-27.19-42.89c-4.42-7-12-7.18-16.77-.48L160.1,487.81c-4.81,6.7-8.51,5.44-8.23-2.8l2.65-77.24a15.69,15.69,0,0,1,15.52-15Z" transform="translate(-99.03 -9)"/>
    <line class="cls-3" x1="119.93" y1="62.13" x2="206.03" y2="62.13"/>
    <line class="cls-3" x1="149.93" y1="129.72" x2="259.52" y2="129.72"/>
    <line class="cls-3" x1="57.31" y1="220.62" x2="119.93" y2="220.62"/>
    <line class="cls-3" x1="56.01" y1="175.17" x2="166.89" y2="175.17"/>
    <line class="cls-3" x1="208.64" y1="175.17" x2="258.21" y2="175.17"/>
    <line class="cls-3" x1="106.88" y1="129.72" x2="57.31" y2="129.72"/>
  </g>
</svg>
