<svg width="517" height="386" viewBox="0 0 517 386" fill="none" xmlns="http://www.w3.org/2000/svg">
<path d="M144 22V79H121V22H144ZM146 0H119C113.701 0.0158273 108.623 2.12805 104.875 5.87535C101.128 9.62265 99.0158 14.7005 99 20V81C99.0158 86.2995 101.128 91.3773 104.875 95.1246C108.623 98.872 113.701 100.984 119 101H146C151.299 100.984 156.377 98.872 160.125 95.1246C163.872 91.3773 165.984 86.2995 166 81V20C165.984 14.7005 163.872 9.62265 160.125 5.87535C156.377 2.12805 151.299 0.0158273 146 0Z" fill="#D8D8D8"/>
<path d="M251 22V79H228V22H251ZM253 0H226C220.701 0.0158273 215.623 2.12805 211.875 5.87535C208.128 9.62265 206.016 14.7005 206 20V81C206.016 86.2995 208.128 91.3773 211.875 95.1246C215.623 98.872 220.701 100.984 226 101H253C258.299 100.984 263.377 98.872 267.125 95.1246C270.872 91.3773 272.984 86.2995 273 81V20C272.984 14.7005 270.872 9.62265 267.125 5.87535C263.377 2.12805 258.299 0.0158273 253 0Z" fill="#D8D8D8"/>
<path d="M352 22V79H329V22H352ZM354 0H327C321.701 0.0158273 316.623 2.12805 312.875 5.87535C309.128 9.62265 307.016 14.7005 307 20V81C307.016 86.2995 309.128 91.3773 312.875 95.1246C316.623 98.872 321.701 100.984 327 101H354C359.299 100.984 364.377 98.872 368.125 95.1246C371.872 91.3773 373.984 86.2995 374 81V20C373.984 14.7005 371.872 9.62265 368.125 5.87535C364.377 2.12805 359.299 0.0158273 354 0Z" fill="#D8D8D8"/>
<path d="M111.22 131C112.277 131.013 113.287 131.439 114.034 132.186C114.781 132.933 115.207 133.943 115.22 135V167.22C115.207 168.277 114.781 169.287 114.034 170.034C113.287 170.781 112.277 171.207 111.22 171.22H79C77.9432 171.207 76.9333 170.781 76.1859 170.034C75.4386 169.287 75.013 168.277 75 167.22V135C75.013 133.943 75.4386 132.933 76.1859 132.186C76.9333 131.439 77.9432 131.013 79 131H111.22ZM111.22 115H79C73.7005 115.016 68.6227 117.128 64.8754 120.875C61.128 124.623 59.0158 129.701 59 135V167.22C59.0158 172.519 61.128 177.597 64.8754 181.345C68.6227 185.092 73.7005 187.204 79 187.22H111.22C116.519 187.204 121.597 185.092 125.345 181.345C129.092 177.597 131.204 172.519 131.22 167.22V135C131.204 129.701 129.092 124.623 125.345 120.875C121.597 117.128 116.519 115.016 111.22 115Z" fill="#D8D8D8"/>
<g opacity="0.5">
<path d="M277.64 131C278.696 131.015 279.704 131.442 280.451 132.189C281.198 132.936 281.624 133.944 281.64 135V167.22C281.624 168.276 281.198 169.284 280.451 170.031C279.704 170.778 278.696 171.205 277.64 171.22H245.42C244.363 171.207 243.353 170.781 242.606 170.034C241.858 169.287 241.433 168.277 241.42 167.22V135C241.433 133.943 241.858 132.933 242.606 132.186C243.353 131.439 244.363 131.013 245.42 131H277.64ZM277.64 115H245.42C240.12 115.016 235.043 117.128 231.295 120.875C227.548 124.623 225.436 129.701 225.42 135V167.22C225.436 172.519 227.548 177.597 231.295 181.345C235.043 185.092 240.12 187.204 245.42 187.22H277.64C282.939 187.204 288.017 185.092 291.765 181.345C295.512 177.597 297.624 172.519 297.64 167.22V135C297.624 129.701 295.512 124.623 291.765 120.875C288.017 117.128 282.939 115.016 277.64 115Z" fill="#D8D8D8"/>
</g>
<path d="M321 34H262.58" stroke="#D8D8D8" stroke-width="27" stroke-miterlimit="10"/>
<path d="M217 34H156.61" stroke="#D8D8D8" stroke-width="27" stroke-miterlimit="10"/>
<g opacity="0.25">
<path d="M360 131C361.057 131.013 362.067 131.439 362.814 132.186C363.561 132.933 363.987 133.943 364 135V167.21C363.987 168.267 363.561 169.277 362.814 170.024C362.067 170.771 361.057 171.197 360 171.21H327.78C326.723 171.197 325.713 170.771 324.966 170.024C324.218 169.277 323.793 168.267 323.78 167.21V135C323.793 133.943 324.218 132.933 324.966 132.186C325.713 131.439 326.723 131.013 327.78 131H360ZM360 115H327.78C322.48 115.016 317.402 117.128 313.655 120.875C309.908 124.623 307.796 129.701 307.78 135V167.21C307.796 172.509 309.908 177.587 313.655 181.335C317.402 185.082 322.48 187.194 327.78 187.21H360C365.299 187.194 370.377 185.082 374.124 181.335C377.872 177.587 379.984 172.509 380 167.21V135C379.984 129.701 377.872 124.623 374.124 120.875C370.377 117.128 365.299 115.016 360 115Z" fill="#D8D8D8"/>
</g>
<path d="M195.29 131C196.347 131.013 197.357 131.439 198.104 132.186C198.851 132.933 199.277 133.943 199.29 135V167.21C199.277 168.267 198.851 169.277 198.104 170.024C197.357 170.771 196.347 171.197 195.29 171.21H163.07C162.014 171.195 161.005 170.768 160.259 170.021C159.512 169.274 159.085 168.266 159.07 167.21V135C159.085 133.944 159.512 132.936 160.259 132.189C161.005 131.442 162.014 131.015 163.07 131H195.29ZM195.29 115H163.07C157.77 115.016 152.692 117.128 148.945 120.875C145.198 124.623 143.086 129.701 143.07 135V167.21C143.086 172.509 145.198 177.587 148.945 181.335C152.692 185.082 157.77 187.194 163.07 187.21H195.29C200.589 187.194 205.667 185.082 209.414 181.335C213.162 177.587 215.274 172.509 215.29 167.21V135C215.274 129.701 213.162 124.623 209.414 120.875C205.667 117.128 200.589 115.016 195.29 115Z" fill="#D8D8D8"/>
<g clip-path="url(#clip0_203_44)">
<path d="M416 203.8C434.092 203.8 451.624 210.073 465.609 221.551C479.595 233.028 489.168 249 492.697 266.744C496.226 284.489 493.494 302.908 484.966 318.864C476.437 334.819 462.64 347.324 445.925 354.248C429.21 361.171 410.612 362.085 393.299 356.833C375.986 351.581 361.03 340.488 350.978 325.445C340.927 310.402 336.403 292.34 338.176 274.335C339.95 256.33 347.911 239.497 360.704 226.704C367.949 219.42 376.567 213.646 386.058 209.714C395.55 205.783 405.727 203.773 416 203.8ZM416 187C363.532 187 321 229.532 321 282C321 334.468 363.532 377 416 377C468.468 377 511 334.468 511 282C511 229.532 468.468 187 416 187Z" fill="#D8D8D8"/>
<path d="M416 284L468 283.6" stroke="#D8D8D8" stroke-width="12.4" stroke-miterlimit="10" stroke-linecap="round"/>
<path d="M414.2 281.8L427.8 255.4" stroke="#D8D8D8" stroke-width="16.8" stroke-miterlimit="10" stroke-linecap="round"/>
<path d="M415.6 197.6L415.8 209.4" stroke="#D8D8D8" stroke-width="10" stroke-miterlimit="10" stroke-linecap="round"/>
<path d="M415.724 354.584L415.924 366.384" stroke="#D8D8D8" stroke-width="10" stroke-miterlimit="10" stroke-linecap="round"/>
<path d="M343.724 283.984L331.924 284.184" stroke="#D8D8D8" stroke-width="10" stroke-miterlimit="10" stroke-linecap="round"/>
<path d="M500.124 281.984L488.324 282.184" stroke="#D8D8D8" stroke-width="10" stroke-miterlimit="10" stroke-linecap="round"/>
<path d="M358.756 346.096L366.96 337.608" stroke="#D8D8D8" stroke-width="10" stroke-miterlimit="10" stroke-linecap="round"/>
<path d="M465.956 229.296L474.16 220.808" stroke="#D8D8D8" stroke-width="10" stroke-miterlimit="10" stroke-linecap="round"/>
<path d="M466.616 337.752L475.1 345.952" stroke="#D8D8D8" stroke-width="10" stroke-miterlimit="10" stroke-linecap="round"/>
<path d="M359.884 219.28L368.232 227.624" stroke="#D8D8D8" stroke-width="10" stroke-miterlimit="10" stroke-linecap="round"/>
</g>
<path fill-rule="evenodd" clip-rule="evenodd" d="M45 20H44.9791L44.9582 20.0001C35.9602 20.0269 27.3384 23.6133 20.9759 29.9759C14.6133 36.3384 11.0269 44.9602 11.0001 53.9582L11 53.9791V54V303V303.021L11.0001 303.042C11.0269 312.04 14.6133 320.662 20.9759 327.024C27.3384 333.387 35.9602 336.973 44.9582 337L44.9791 337H45H320.68C316.296 328.265 313.036 318.868 311.09 309H45.0273C43.4316 308.991 41.9034 308.354 40.7748 307.225C39.6463 306.097 39.0086 304.569 39 302.973V54.0271C39.0086 52.4315 39.6463 50.9034 40.7748 49.7748C41.9034 48.6463 43.4315 48.0086 45.0271 48H110V20H45ZM431 177.591C440.767 178.601 450.157 180.883 459 184.269V54V53.9791L459 53.9582C458.973 44.9602 455.387 36.3384 449.024 29.9759C442.662 23.6133 434.04 20.0269 425.042 20.0001L425.021 20H425H359V48H424.973C426.569 48.0086 428.097 48.6463 429.225 49.7748C430.354 50.9034 430.991 52.4316 431 54.0273V177.591Z" fill="#D8D8D8"/>
<defs>
<clipPath id="clip0_203_44">
<rect width="190" height="190" fill="white" transform="translate(321 187)"/>
</clipPath>
</defs>
</svg>
