<svg id="Calque_1" data-name="Calque 1" xmlns="http://www.w3.org/2000/svg" viewBox="0 0 475 475">
  <defs>
    <style>
      .cls-1 {
        fill: #d8d8d8;
      }

      .cls-2, .cls-3, .cls-4 {
        fill: #fff;
        stroke: #d8d8d8;
        stroke-linecap: round;
        stroke-miterlimit: 10;
      }

      .cls-2 {
        stroke-width: 31px;
      }

      .cls-3 {
        stroke-width: 42px;
      }

      .cls-4 {
        stroke-width: 25px;
      }
    </style>
  </defs>
  <g>
    <path class="cls-1" d="M255.5,61a195.5,195.5,0,1,1-138.24,57.26A194.25,194.25,0,0,1,255.5,61m0-42C124.33,19,18,125.33,18,256.5S124.33,494,255.5,494,493,387.67,493,256.5,386.67,19,255.5,19Z" transform="translate(-18 -19)"/>
    <line class="cls-2" x1="237.5" y1="242.5" x2="367.5" y2="241.5"/>
    <line class="cls-3" x1="233" y1="237" x2="267" y2="171"/>
    <line class="cls-4" x1="236.5" y1="26.5" x2="237" y2="56"/>
    <line class="cls-4" x1="236.81" y1="418.96" x2="237.31" y2="448.46"/>
    <line class="cls-4" x1="56.81" y1="242.46" x2="27.31" y2="242.96"/>
    <line class="cls-4" x1="447.81" y1="237.46" x2="418.31" y2="237.96"/>
    <line class="cls-4" x1="94.39" y1="397.74" x2="114.9" y2="376.52"/>
    <line class="cls-4" x1="362.39" y1="105.74" x2="382.9" y2="84.52"/>
    <line class="cls-4" x1="364.04" y1="376.88" x2="385.25" y2="397.38"/>
    <line class="cls-4" x1="97.21" y1="80.7" x2="118.08" y2="101.56"/>
  </g>
</svg>
