<svg id="Calque_1" data-name="Calque 1" xmlns="http://www.w3.org/2000/svg" viewBox="0 0 512 512">
  <defs>
    <style>
      .cls-1 {
        fill: #d8d8d8;
      }

      .cls-2 {
        fill: none;
        stroke: #d8d8d8;
        stroke-linecap: round;
        stroke-miterlimit: 10;
        stroke-width: 18px;
      }
    </style>
  </defs>
  <g>
    <path class="cls-1" d="M256,45A210.9999,210.9999,0,0,1,405.19946,405.19946,210.9999,210.9999,0,1,1,106.80054,106.80054,209.61805,209.61805,0,0,1,256,45m0-45C114.61509,0,0,114.61509,0,256S114.61509,512,256,512,512,397.38492,512,256,397.38492,0,256,0Z"/>
    <line class="cls-2" x1="96.46106" y1="200.34609" x2="124.45238" y2="200.34609"/>
    <line class="cls-2" x1="96.06849" y1="312.56526" x2="124.05981" y2="312.56526"/>
    <line class="cls-2" x1="82.20796" y1="243.96615" x2="82.20796" y2="215.97483"/>
    <line class="cls-2" x1="138.1906" y1="243.96615" x2="138.1906" y2="215.97483"/>
    <line class="cls-2" x1="81.13978" y1="299.50264" x2="81.13978" y2="271.51132"/>
    <line class="cls-2" x1="138.98851" y1="301.36873" x2="138.98851" y2="273.37741"/>
    <line class="cls-2" x1="180.03999" y1="199.87761" x2="208.03131" y2="199.87761"/>
    <line class="cls-2" x1="179.64742" y1="312.09677" x2="207.63874" y2="312.09677"/>
    <line class="cls-2" x1="165.78689" y1="243.49767" x2="165.78689" y2="215.50635"/>
    <line class="cls-2" x1="221.76952" y1="243.49767" x2="221.76952" y2="215.50635"/>
    <line class="cls-2" x1="164.71871" y1="299.03416" x2="164.71871" y2="271.04284"/>
    <line class="cls-2" x1="222.56744" y1="300.90025" x2="222.56744" y2="272.90893"/>
    <line class="cls-2" x1="303.13807" y1="199.87761" x2="331.12938" y2="199.87761"/>
    <line class="cls-2" x1="302.7455" y1="312.09677" x2="330.73681" y2="312.09677"/>
    <line class="cls-2" x1="288.88497" y1="243.49767" x2="288.88497" y2="215.50635"/>
    <line class="cls-2" x1="344.8676" y1="243.49767" x2="344.8676" y2="215.50635"/>
    <line class="cls-2" x1="287.81679" y1="299.03416" x2="287.81679" y2="271.04284"/>
    <line class="cls-2" x1="345.66552" y1="300.90025" x2="345.66552" y2="272.90893"/>
    <line class="cls-2" x1="386.91898" y1="199.07969" x2="414.91029" y2="199.07969"/>
    <line class="cls-2" x1="386.52641" y1="311.29886" x2="414.51772" y2="311.29886"/>
    <line class="cls-2" x1="372.66588" y1="242.69975" x2="372.66588" y2="214.70844"/>
    <line class="cls-2" x1="428.64851" y1="242.69975" x2="428.64851" y2="214.70844"/>
    <line class="cls-2" x1="371.5977" y1="298.23625" x2="371.5977" y2="270.24493"/>
    <line class="cls-2" x1="429.44643" y1="300.10233" x2="429.44643" y2="272.11102"/>
    <circle class="cls-2" cx="257.54178" cy="231.1309" r="3.41856"/>
    <circle class="cls-2" cx="256.56505" cy="288.75802" r="3.41856"/>
  </g>
</svg>
