<svg id="Calque_1" data-name="Calque 1" xmlns="http://www.w3.org/2000/svg" viewBox="0 0 512 512">
  <defs>
    <style>
      .cls-1 {
        fill: #3b3e4b;
      }

      .cls-2 {
        fill: none;
        stroke: #3b3e4b;
        stroke-linecap: round;
        stroke-miterlimit: 10;
        stroke-width: 17px;
      }
    </style>
  </defs>
  <g>
    <path class="cls-1" d="M256,45A211,211,0,0,1,405.2,405.2,211,211,0,0,1,106.8,106.8,209.63,209.63,0,0,1,256,45m0-45C114.62,0,0,114.62,0,256S114.62,512,256,512,512,397.38,512,256,397.38,0,256,0Z"/>
    <line class="cls-2" x1="96.46" y1="200.35" x2="124.45" y2="200.35"/>
    <line class="cls-2" x1="96.07" y1="312.57" x2="124.06" y2="312.57"/>
    <line class="cls-2" x1="82.21" y1="243.97" x2="82.21" y2="215.97"/>
    <line class="cls-2" x1="138.19" y1="243.97" x2="138.19" y2="215.97"/>
    <line class="cls-2" x1="81.14" y1="299.5" x2="81.14" y2="271.51"/>
    <line class="cls-2" x1="138.99" y1="301.37" x2="138.99" y2="273.38"/>
    <line class="cls-2" x1="180.04" y1="199.88" x2="208.03" y2="199.88"/>
    <line class="cls-2" x1="179.65" y1="312.1" x2="207.64" y2="312.1"/>
    <line class="cls-2" x1="165.79" y1="243.5" x2="165.79" y2="215.51"/>
    <line class="cls-2" x1="221.77" y1="243.5" x2="221.77" y2="215.51"/>
    <line class="cls-2" x1="164.72" y1="299.03" x2="164.72" y2="271.04"/>
    <line class="cls-2" x1="222.57" y1="300.9" x2="222.57" y2="272.91"/>
    <line class="cls-2" x1="303.14" y1="199.88" x2="331.13" y2="199.88"/>
    <line class="cls-2" x1="302.75" y1="312.1" x2="330.74" y2="312.1"/>
    <line class="cls-2" x1="288.88" y1="243.5" x2="288.88" y2="215.51"/>
    <line class="cls-2" x1="344.87" y1="243.5" x2="344.87" y2="215.51"/>
    <line class="cls-2" x1="287.82" y1="299.03" x2="287.82" y2="271.04"/>
    <line class="cls-2" x1="345.67" y1="300.9" x2="345.67" y2="272.91"/>
    <line class="cls-2" x1="386.92" y1="199.08" x2="414.91" y2="199.08"/>
    <line class="cls-2" x1="386.53" y1="311.3" x2="414.52" y2="311.3"/>
    <line class="cls-2" x1="372.67" y1="242.7" x2="372.67" y2="214.71"/>
    <line class="cls-2" x1="428.65" y1="242.7" x2="428.65" y2="214.71"/>
    <line class="cls-2" x1="371.6" y1="298.24" x2="371.6" y2="270.24"/>
    <line class="cls-2" x1="429.45" y1="300.1" x2="429.45" y2="272.11"/>
    <circle class="cls-2" cx="257.54" cy="231.13" r="3.42"/>
    <circle class="cls-2" cx="256.57" cy="288.76" r="3.42"/>
  </g>
</svg>
