<svg id="Calque_1" data-name="Calque 1" xmlns="http://www.w3.org/2000/svg" viewBox="0 0 360 431">
  <defs>
    <style>
      .cls-1 {
        fill: none;
        stroke: #3b3e4b;
        stroke-linecap: round;
        stroke-linejoin: round;
        stroke-width: 40px;
      }

      .cls-2 {
        fill: #3b3e4b;
      }
    </style>
  </defs>
  <g>
    <path class="cls-1" d="M173.5,206.5A166.947,166.947,0,0,1,138.94737,172C110.436,133.10126,100.26136,88.69513,96,61H416c-2.72744,28.92194-10.41339,69.87329-34.52632,106-34.14561,51.158-82.00966,63.84418-129.51392,78.85968C211.01717,258.80109,170.3418,273.47241,138.94737,316,120.81594,340.56122,100.52986,381.52551,96,452H416c-3.65373-67.38031-22.79281-106.0199-37.89474-128-14.30453-20.81958-23.82237-27.6709-41.60526-38.5" transform="translate(-76 -41)"/>
    <g>
      <path class="cls-2" d="M182,401c-8.84521,0-12.27393-5.17871-13.3374-7.40527s-2.9375-8.14844,2.62158-15.0293c3.95215-4.8916,14.001-16.54785,21.93506-19.125a105.24807,105.24807,0,0,0,17.228-7.69336,23.06325,23.06325,0,0,0,3.76367-2.63769c5.28076-4.43653,7.40918-8.91993,9.66308-13.666,2.75391-5.79981,5.87549-12.374,14.09571-16.49023a29.47934,29.47934,0,0,1,13.32861-2.957c9.12158,0,17.37842,3.38965,20.50439,4.84668a45.76338,45.76338,0,0,1,8.19336,5.02539,58.21288,58.21288,0,0,0,9.957,6.04688,54.85722,54.85722,0,0,0,5.90332,2.5166,39.32245,39.32245,0,0,1,6.36425,2.87207c9.88575,5.54395,15.31543,13.15723,18.55957,17.70508l.53125.74316c4.043,5.63184,15.98536,18.36914,20.2461,22.80176,6.30176,6.55371,4.72168,12.57129,3.75,14.85352C344.33594,395.69043,341.09375,401,332,401Z" transform="translate(-76 -41)"/>
      <path class="cls-2" d="M251.29776,324.99591c7.81277,0,15.21078,3.30927,16.70224,4.00406,6.22406,2.8996,7.62939,5.93008,18,11,6.51733,3.18622,7.61633,2.798,11.8194,5.15466C306.44974,349.99371,310.95087,356.7525,314,361c5.30981,7.39673,21.06973,23.79086,21.06973,23.79086C338.88141,388.75592,337.5,392,332,392H182c-5.5,0-7.17194-3.50028-3.71539-7.77841,0,0,11.46592-14.19132,17.71539-16.22159a114.63206,114.63206,0,0,0,18.7804-8.36459A31.99245,31.99245,0,0,0,220,356c13.60454-11.42728,11.1346-23.55881,22-29a20.64648,20.64648,0,0,1,9.29776-2.00406m0-18a38.39233,38.39233,0,0,0-17.35753,3.90933c-10.99167,5.50446-15.15573,14.27433-18.19614,20.6778-2.05625,4.3306-3.54193,7.45953-7.32119,10.634a14.65249,14.65249,0,0,1-2.3096,1.6424,97.01309,97.01309,0,0,1-15.6746,7.02121c-9.36553,3.0426-19.39266,13.65866-26.15521,22.02865-6.08986,7.53732-7.48872,16.72013-3.74212,24.56394S172.30994,410,182,410H332c10.03387,0,18.10413-4.8844,21.58786-13.06574s1.41208-17.38424-5.54166-24.61779c-5.75094-5.98368-16.11041-17.19773-19.42373-21.81333l-.51468-.72006c-3.44013-4.82333-9.84345-13.80127-21.48511-20.3288a48.26325,48.26325,0,0,0-7.65167-3.46682,46.01724,46.01724,0,0,1-5.06534-2.15845,49.29158,49.29158,0,0,1-8.61441-5.238,54.71151,54.71151,0,0,0-9.69-5.90725c-3.67118-1.71027-13.38791-5.68781-24.30353-5.68781Z" transform="translate(-76 -41)"/>
    </g>
  </g>
</svg>
