<svg id="Calque_1" data-name="Calque 1" xmlns="http://www.w3.org/2000/svg" viewBox="0 0 425.51456 475.07531">
  <defs>
    <style>
      .cls-1 {
        fill: #d8d8d8;
      }

      .cls-2, .cls-3 {
        fill: none;
        stroke: #d8d8d8;
        stroke-linecap: round;
        stroke-linejoin: round;
      }

      .cls-2 {
        stroke-width: 21px;
      }

      .cls-3 {
        stroke-width: 26px;
        fill-rule: evenodd;
      }
    </style>
  </defs>
  <g>
    <path class="cls-1" d="M191.7841,89c11,0,26.40789,6.31978,34.23966,14.04389L430.67511,304.88223a21.20193,21.20193,0,0,1,.86288,28.912L332.71765,443.63193a18.819,18.819,0,0,1-27.51889.72586L93.1421,232.30124c-7.77812-7.77821-13.86867-23.138-13.53456-34.13289l1.78489-58.73444C81.72665,128.439,88.364,113.07925,96.1421,105.301l2.159-2.15889C106.07921,95.36391,121.44321,89,132.44321,89H191.7841m0-27H132.44321c-18.06933,0-40.45745,9.27356-53.23411,22.05033l-2.15845,2.15834c-12.58144,12.58167-22.10511,34.62089-22.64577,52.4049L52.62,197.34825c-.55734,18.34067,8.45533,41.06978,21.4301,54.04477L286.10687,463.44968a45.81774,45.81774,0,0,0,66.68268-1.7591L451.61,351.85291a48.19881,48.19881,0,0,0-1.97556-66.19422L244.98309,83.82036C232.16321,71.1768,209.78987,62,191.7841,62Z" transform="translate(-38.29798 -1.90937)"/>
    <path class="cls-1" d="M150,122a34,34,0,1,1-34,34,34,34,0,0,1,34-34m0-20a54,54,0,1,0,54,54,54.06116,54.06116,0,0,0-54-54Z" transform="translate(-38.29798 -1.90937)"/>
    <line class="cls-2" x1="160.70202" y1="298.09063" x2="252.20202" y2="206.59063"/>
    <line class="cls-2" x1="199.53629" y1="336.8294" x2="291.03629" y2="245.3294"/>
    <line class="cls-2" x1="240.53629" y1="373.8294" x2="332.03629" y2="282.3294"/>
    <path class="cls-3" d="M128,130c5.14938,1.83356,13.452,3.82976,22,1,20.81459-6.89049,28.53772-37.57977,26-59a63.50775,63.50775,0,0,0-15-34c-9.81189-11.19926-21.06456-15.70373-27-18a68.13911,68.13911,0,0,0-29-5c-6.57687.34695-20.09727,1.24539-33,11-3.28593,2.4842-14.603,11.24191-19,27-2.55578,9.15942-1.64894,16.644-1,22,.83153,6.863,2.10983,17.41344,10,27a42.35629,42.35629,0,0,0,14,11" transform="translate(-38.29798 -1.90937)"/>
  </g>
  <path class="cls-3" d="M120,35" transform="translate(-38.29798 -1.90937)"/>
</svg>
