<svg id="Calque_1" data-name="Calque 1" xmlns="http://www.w3.org/2000/svg" viewBox="0 0 365.6 346.46"><defs><style>.cls-1,.cls-2,.cls-3,.cls-4{fill:none;stroke:#d1d1d1;stroke-miterlimit:10;}.cls-1{stroke-width:15px;}.cls-2,.cls-4{stroke-linecap:round;}.cls-2,.cls-3{stroke-width:26px;}.cls-4{stroke-width:17px;}</style></defs><path class="cls-1" d="M352.44,296.21" transform="translate(-72.9 -82.5)"/><path class="cls-2" d="M352.44,296.21A102.6,102.6,0,1,1,389,276.4" transform="translate(-72.9 -82.5)"/><path class="cls-3" d="M227.5,234.5c-109,84-161,133-135,165,42.3,52.06,106-28,162-120" transform="translate(-72.9 -82.5)"/><path class="cls-4" d="M362.48,155.37a58.08,58.08,0,0,1,13.13,18" transform="translate(-72.9 -82.5)"/><path class="cls-4" d="M292.36,149a57.85,57.85,0,0,1,48.78-6.12" transform="translate(-72.9 -82.5)"/><path class="cls-4" d="M284,155.37a57.8,57.8,0,0,1,8.34-6.42" transform="translate(-72.9 -82.5)"/></svg>