<svg id="Calque_1" data-name="Calque 1" xmlns="http://www.w3.org/2000/svg" viewBox="0 0 349 358">
  <defs>
    <style>
      .cls-1, .cls-2 {
        fill: #d8d8d8;
      }

      .cls-2, .cls-3 {
        stroke: #d8d8d8;
        stroke-miterlimit: 10;
      }

      .cls-2 {
        stroke-width: 69px;
      }

      .cls-3 {
        fill: none;
      }
    </style>
  </defs>
  <path class="cls-1" d="M176.5,100.5a81,81,0,1,1-81,81,81.1,81.1,0,0,1,81-81m0-69a150,150,0,1,0,150,150,150,150,0,0,0-150-150Z" transform="translate(0.5 0.5)"/>
  <path class="cls-2" d="M176,32" transform="translate(0.5 0.5)"/>
  <g>
    <path class="cls-1" d="M131.71,42.15A8.14,8.14,0,0,0,140,52h69a8.33,8.33,0,0,0,8.48-9.88l-5-32.24A12.07,12.07,0,0,0,201,0H149a12.35,12.35,0,0,0-11.71,9.85Z" transform="translate(0.5 0.5)"/>
    <path class="cls-3" d="M131.71,42.15A8.14,8.14,0,0,0,140,52h69a8.33,8.33,0,0,0,8.48-9.88l-5-32.24A12.07,12.07,0,0,0,201,0H149a12.35,12.35,0,0,0-11.71,9.85Z" transform="translate(0.5 0.5)"/>
  </g>
  <g>
    <path class="cls-1" d="M305.85,138.77a8.14,8.14,0,0,0-9.85,8.29v69a8.33,8.33,0,0,0,9.88,8.48l32.24-4.95A12.08,12.08,0,0,0,348,208.06v-52a12.34,12.34,0,0,0-9.85-11.7Z" transform="translate(0.5 0.5)"/>
    <path class="cls-3" d="M305.85,138.77a8.14,8.14,0,0,0-9.85,8.29v69a8.33,8.33,0,0,0,9.88,8.48l32.24-4.95A12.08,12.08,0,0,0,348,208.06v-52a12.34,12.34,0,0,0-9.85-11.7Z" transform="translate(0.5 0.5)"/>
  </g>
  <g>
    <path class="cls-1" d="M42.15,224.36a8.15,8.15,0,0,0,9.85-8.3v-69a8.33,8.33,0,0,0-9.88-8.47L9.88,143.54A12.07,12.07,0,0,0,0,155.06v52a12.35,12.35,0,0,0,9.85,11.71Z" transform="translate(0.5 0.5)"/>
    <path class="cls-3" d="M42.15,224.36a8.15,8.15,0,0,0,9.85-8.3v-69a8.33,8.33,0,0,0-9.88-8.47L9.88,143.54A12.07,12.07,0,0,0,0,155.06v52a12.35,12.35,0,0,0,9.85,11.71Z" transform="translate(0.5 0.5)"/>
  </g>
  <g>
    <path class="cls-1" d="M217,314.85a8.14,8.14,0,0,0-8.29-9.85h-69a8.33,8.33,0,0,0-8.48,9.88l5,32.24A12.06,12.06,0,0,0,147.75,357h52a12.34,12.34,0,0,0,11.7-9.85Z" transform="translate(0.5 0.5)"/>
    <path class="cls-3" d="M217,314.85a8.14,8.14,0,0,0-8.29-9.85h-69a8.33,8.33,0,0,0-8.48,9.88l5,32.24A12.06,12.06,0,0,0,147.75,357h52a12.34,12.34,0,0,0,11.7-9.85Z" transform="translate(0.5 0.5)"/>
  </g>
  <g>
    <path class="cls-1" d="M240.57,55.72a8.14,8.14,0,0,0-1.1,12.83l48.79,48.79a8.33,8.33,0,0,0,13-1l19.29-26.3a12.06,12.06,0,0,0-1.16-15.13L282.6,38.15a12.34,12.34,0,0,0-15.24-1.31Z" transform="translate(0.5 0.5)"/>
    <path class="cls-3" d="M240.57,55.72a8.14,8.14,0,0,0-1.1,12.83l48.79,48.79a8.33,8.33,0,0,0,13-1l19.29-26.3a12.06,12.06,0,0,0-1.16-15.13L282.6,38.15a12.34,12.34,0,0,0-15.24-1.31Z" transform="translate(0.5 0.5)"/>
  </g>
  <g>
    <path class="cls-1" d="M51.4,107.24a8.15,8.15,0,0,0,12.84,1.1L113,59.55a8.33,8.33,0,0,0-1-13L85.74,27.28A12.07,12.07,0,0,0,70.6,28.44L33.83,65.21a12.35,12.35,0,0,0-1.31,15.25Z" transform="translate(0.5 0.5)"/>
    <path class="cls-3" d="M51.4,107.24a8.15,8.15,0,0,0,12.84,1.1L113,59.55a8.33,8.33,0,0,0-1-13L85.74,27.28A12.07,12.07,0,0,0,70.6,28.44L33.83,65.21a12.35,12.35,0,0,0-1.31,15.25Z" transform="translate(0.5 0.5)"/>
  </g>
  <g>
    <path class="cls-1" d="M111.93,306.41a8.16,8.16,0,0,0,1.1-12.84L64.24,244.78a8.35,8.35,0,0,0-13,1L32,272.08a12.06,12.06,0,0,0,1.15,15.13L69.89,324a12.35,12.35,0,0,0,15.25,1.31Z" transform="translate(0.5 0.5)"/>
    <path class="cls-3" d="M111.93,306.41a8.16,8.16,0,0,0,1.1-12.84L64.24,244.78a8.35,8.35,0,0,0-13,1L32,272.08a12.06,12.06,0,0,0,1.15,15.13L69.89,324a12.35,12.35,0,0,0,15.25,1.31Z" transform="translate(0.5 0.5)"/>
  </g>
  <g>
    <path class="cls-1" d="M301.09,245.89a8.15,8.15,0,0,0-12.83-1.11l-48.79,48.79a8.34,8.34,0,0,0,1,13l26.3,19.29a12.06,12.06,0,0,0,15.13-1.16l36.77-36.77A12.35,12.35,0,0,0,320,272.67Z" transform="translate(0.5 0.5)"/>
    <path class="cls-3" d="M301.09,245.89a8.15,8.15,0,0,0-12.83-1.11l-48.79,48.79a8.34,8.34,0,0,0,1,13l26.3,19.29a12.06,12.06,0,0,0,15.13-1.16l36.77-36.77A12.35,12.35,0,0,0,320,272.67Z" transform="translate(0.5 0.5)"/>
  </g>
</svg>
