<svg id="Calque_1" data-name="Calque 1" xmlns="http://www.w3.org/2000/svg" viewBox="0 0 298 352">
  <defs>
    <style>
      .cls-1 {
        fill: #d8d8d8;
      }
    </style>
  </defs>
  <path class="cls-1" d="M183.5,181a9.5,9.5,0,1,1-9.5,9.5,9.51,9.51,0,0,1,9.5-9.5m0-13A22.5,22.5,0,1,0,206,190.5,22.5,22.5,0,0,0,183.5,168Z" transform="translate(-104 -56)"/>
  <path class="cls-1" d="M253.5,195A22.5,22.5,0,1,1,231,217.5,22.52,22.52,0,0,1,253.5,195m0-13A35.5,35.5,0,1,0,289,217.5,35.5,35.5,0,0,0,253.5,182Z" transform="translate(-104 -56)"/>
  <path class="cls-1" d="M350,317a39,39,0,1,1-39,39,39.05,39.05,0,0,1,39-39m0-13a52,52,0,1,0,52,52,52,52,0,0,0-52-52Z" transform="translate(-104 -56)"/>
  <path class="cls-1" d="M319.5,143a8.5,8.5,0,1,1-8.5,8.5,8.51,8.51,0,0,1,8.5-8.5m0-13A21.5,21.5,0,1,0,341,151.5,21.51,21.51,0,0,0,319.5,130Z" transform="translate(-104 -56)"/>
  <path class="cls-1" d="M281.5,56A10.5,10.5,0,1,0,292,66.5,10.5,10.5,0,0,0,281.5,56Z" transform="translate(-104 -56)"/>
  <path class="cls-1" d="M176,275a57,57,0,1,1-57,57,57.06,57.06,0,0,1,57-57m0-15a72,72,0,1,0,72,72,72,72,0,0,0-72-72Z" transform="translate(-104 -56)"/>
  <path class="cls-1" d="M154,293c2,0,5,3.31,5,8.5s-3,8.5-5,8.5-5-3.31-5-8.5,3-8.5,5-8.5m0-13c-9.94,0-18,9.63-18,21.5s8.06,21.5,18,21.5,18-9.63,18-21.5S163.94,280,154,280Z" transform="translate(-104 -56)"/>
  <path class="cls-1" d="M370,326c-5,0-9,4.81-9,10.75s4,10.75,9,10.75,9-4.81,9-10.75S375,326,370,326Z" transform="translate(-104 -56)"/>
  <path class="cls-1" d="M244.5,125a8.5,8.5,0,1,1-8.5,8.5,8.51,8.51,0,0,1,8.5-8.5m0-13A21.5,21.5,0,1,0,266,133.5,21.51,21.51,0,0,0,244.5,112Z" transform="translate(-104 -56)"/>
  <path class="cls-1" d="M312.85,257.51a4.15,4.15,0,1,1-4.15,4.15,4.15,4.15,0,0,1,4.15-4.15m0-8A12.15,12.15,0,1,0,325,261.66a12.15,12.15,0,0,0-12.15-12.15Z" transform="translate(-104 -56)"/>
  <path class="cls-1" d="M317.52,254.65a2.55,2.55,0,1,0,2.11,2.51,2.33,2.33,0,0,0-2.11-2.51Z" transform="translate(-104 -56)"/>
</svg>
