<svg id="Calque_1" data-name="Calque 1" xmlns="http://www.w3.org/2000/svg" viewBox="0 0 401.04 403.36">
  <defs>
    <style>
      .cls-1, .cls-2 {
        fill: none;
        stroke: #d8d8d8;
        stroke-width: 29px;
      }

      .cls-1 {
        stroke-linejoin: round;
      }

      .cls-2 {
        stroke-miterlimit: 10;
      }
    </style>
  </defs>
  <path class="cls-1" d="M98.43,363.61c3.76-10.34,13.21-12.43,21-4.65L158,397.55c7.78,7.77,5.69,17.22-4.65,21l-67.6,24.63c-10.33,3.76-15.71-1.62-11.94-12Z" transform="translate(-58.1 -55.5)"/>
  <g>
    <path class="cls-2" d="M364.57,84.49c-1.26,1.06-3.38,3-4.73,4.28l-1,1.08L119.41,329.28a20.08,20.08,0,0,0,0,28.29L158,396.15a20.06,20.06,0,0,0,28.29,0L411.85,170.59c7.78-7.78,16-16.56,18.18-19.52a113.64,113.64,0,0,0,7.09-10.9l1.32-3.26c1.75-4.3,14.84-36.5-3.28-55.7-14.93-15.82-40.73-11.83-54.39-6.48l-5.52,2.16C370.64,80,365.84,83.43,364.57,84.49Z" transform="translate(-58.1 -55.5)"/>
    <line class="cls-2" x1="303.51" y1="31.59" x2="367.59" y2="101.24"/>
  </g>
</svg>
