<svg id="Calque_1" data-name="Calque 1" xmlns="http://www.w3.org/2000/svg" xmlns:xlink="http://www.w3.org/1999/xlink" viewBox="0 0 474.32031 360.67187">
  <defs>
    <style>
      .cls-1, .cls-10, .cls-11, .cls-4, .cls-8, .cls-9 {
        fill: none;
      }

      .cls-2 {
        fill: #d8d8d8;
      }

      .cls-3 {
        opacity: 0.5;
      }

      .cls-10, .cls-11, .cls-4, .cls-8, .cls-9 {
        stroke: #d8d8d8;
        stroke-miterlimit: 10;
      }

      .cls-4 {
        stroke-width: 27px;
      }

      .cls-5 {
        opacity: 0.25;
      }

      .cls-6 {
        clip-path: url(#clip-path);
      }

      .cls-7 {
        fill: #fff;
      }

      .cls-10, .cls-11, .cls-8, .cls-9 {
        stroke-linecap: round;
      }

      .cls-8 {
        stroke-width: 10.89844px;
      }

      .cls-9 {
        stroke-width: 14.76562px;
      }

      .cls-10 {
        stroke-width: 8.78906px;
      }

      .cls-11 {
        stroke-width: 28px;
      }
    </style>
    <clipPath id="clip-path" transform="translate(-31 -82)">
      <rect class="cls-1" x="332" y="269" width="180" height="180"/>
    </clipPath>
  </defs>
  <path class="cls-2" d="M164,104v57H141V104h23m2-22H139a20.0588,20.0588,0,0,0-20,20v61a20.0588,20.0588,0,0,0,20,20h27a20.0588,20.0588,0,0,0,20-20V102a20.0588,20.0588,0,0,0-20-20Z" transform="translate(-31 -82)"/>
  <path class="cls-2" d="M271,104v57H248V104h23m2-22H246a20.0588,20.0588,0,0,0-20,20v61a20.0588,20.0588,0,0,0,20,20h27a20.0588,20.0588,0,0,0,20-20V102a20.0588,20.0588,0,0,0-20-20Z" transform="translate(-31 -82)"/>
  <path class="cls-2" d="M372,104v57H349V104h23m2-22H347a20.0588,20.0588,0,0,0-20,20v61a20.0588,20.0588,0,0,0,20,20h27a20.0588,20.0588,0,0,0,20-20V102a20.0588,20.0588,0,0,0-20-20Z" transform="translate(-31 -82)"/>
  <path class="cls-2" d="M131.21872,213a4.05361,4.05361,0,0,1,4,4v32.21875a4.0536,4.0536,0,0,1-4,4H99a4.0536,4.0536,0,0,1-4-4V217a4.05361,4.05361,0,0,1,4-4h32.2187m0-16H99a20.0588,20.0588,0,0,0-20,20v32.21875a20.0588,20.0588,0,0,0,20,20h32.2187a20.0588,20.0588,0,0,0,20-20V217a20.0588,20.0588,0,0,0-20-20Z" transform="translate(-31 -82)"/>
  <g class="cls-3">
    <path class="cls-2" d="M297.63586,213a4.05362,4.05362,0,0,1,4,4v32.21875a4.05361,4.05361,0,0,1-4,4H265.41711a4.0536,4.0536,0,0,1-4-4V217a4.0536,4.0536,0,0,1,4-4h32.21875m0-16H265.41711a20.0588,20.0588,0,0,0-20,20v32.21875a20.0588,20.0588,0,0,0,20,20h32.21875a20.0588,20.0588,0,0,0,20-20V217a20.0588,20.0588,0,0,0-20-20Z" transform="translate(-31 -82)"/>
  </g>
  <line class="cls-4" x1="310" y1="34" x2="251.58331" y2="34"/>
  <line class="cls-4" x1="206" y1="34" x2="145.6087" y2="34"/>
  <g class="cls-5">
    <path class="cls-2" d="M380,213.00623a4.05362,4.05362,0,0,1,4,4V249.225a4.05362,4.05362,0,0,1-4,4H347.78128a4.0536,4.0536,0,0,1-4-4V217.00623a4.0536,4.0536,0,0,1,4-4H380m0-16H347.78128a20.0588,20.0588,0,0,0-20,20V249.225a20.0588,20.0588,0,0,0,20,20H380a20.0588,20.0588,0,0,0,20-20V217.00623a20.0588,20.0588,0,0,0-20-20Z" transform="translate(-31 -82)"/>
  </g>
  <path class="cls-2" d="M215.292,213.00623a4.05361,4.05361,0,0,1,4,4V249.225a4.0536,4.0536,0,0,1-4,4H183.07327a4.0536,4.0536,0,0,1-4-4V217.00623a4.0536,4.0536,0,0,1,4-4H215.292m0-16H183.07327a20.0588,20.0588,0,0,0-20,20V249.225a20.0588,20.0588,0,0,0,20,20H215.292a20.0588,20.0588,0,0,0,20-20V217.00623a20.0588,20.0588,0,0,0-20-20Z" transform="translate(-31 -82)"/>
  <g class="cls-6">
    <g class="cls-6">
      <path class="cls-2" d="M421.82422,290.44531a68.73094,68.73094,0,1,1-48.59965,20.13083,68.27891,68.27891,0,0,1,48.59965-20.13083m0-14.76562a83.49609,83.49609,0,1,0,83.49609,83.49609,83.49637,83.49637,0,0,0-83.49609-83.49609" transform="translate(-31 -82)"/>
      <line class="cls-7" x1="390.82422" y1="278.93359" x2="436.52734" y2="278.58203"/>
      <line class="cls-8" x1="390.82422" y1="278.93359" x2="436.52734" y2="278.58203"/>
      <line class="cls-7" x1="389.24219" y1="277" x2="401.19531" y2="253.79688"/>
      <line class="cls-9" x1="389.24219" y1="277" x2="401.19531" y2="253.79688"/>
      <line class="cls-7" x1="390.47266" y1="202.99609" x2="390.64844" y2="213.36719"/>
      <line class="cls-10" x1="390.47266" y1="202.99609" x2="390.64844" y2="213.36719"/>
      <line class="cls-7" x1="390.58322" y1="340.97031" x2="390.759" y2="351.34141"/>
      <line class="cls-10" x1="390.58322" y1="340.97031" x2="390.759" y2="351.34141"/>
      <line class="cls-7" x1="327.30197" y1="278.91953" x2="316.93088" y2="279.09531"/>
      <line class="cls-10" x1="327.30197" y1="278.91953" x2="316.93088" y2="279.09531"/>
      <line class="cls-7" x1="464.76292" y1="277.16154" x2="454.39182" y2="277.33733"/>
      <line class="cls-10" x1="464.76292" y1="277.16154" x2="454.39182" y2="277.33733"/>
      <line class="cls-7" x1="340.51285" y1="333.50854" x2="347.72198" y2="326.05084"/>
      <line class="cls-10" x1="340.51285" y1="333.50854" x2="347.72198" y2="326.05084"/>
      <line class="cls-7" x1="434.73178" y1="230.85243" x2="441.94091" y2="223.39474"/>
      <line class="cls-10" x1="434.73178" y1="230.85243" x2="441.94091" y2="223.39474"/>
      <line class="cls-7" x1="435.31026" y1="326.17516" x2="442.76831" y2="333.3843"/>
      <line class="cls-10" x1="435.31026" y1="326.17516" x2="442.76831" y2="333.3843"/>
      <line class="cls-7" x1="341.50489" y1="222.05001" x2="348.83953" y2="229.38466"/>
      <line class="cls-10" x1="341.50489" y1="222.05001" x2="348.83953" y2="229.38466"/>
    </g>
  </g>
  <path class="cls-11" d="M465,256V136a20.0588,20.0588,0,0,0-20-20H65a20.0588,20.0588,0,0,0-20,20V385a20.0588,20.0588,0,0,0,20,20H318" transform="translate(-31 -82)"/>
</svg>
