<svg id="Calque_1" data-name="Calque 1" xmlns="http://www.w3.org/2000/svg" viewBox="0 0 285.99 299.74">
  <defs>
    <style>
      .cls-1 {
        fill: #d8d8d8;
      }

      .cls-2, .cls-3, .cls-4 {
        fill: none;
        stroke: #d8d8d8;
        stroke-linecap: round;
        stroke-miterlimit: 10;
      }

      .cls-2 {
        stroke-width: 25px;
      }

      .cls-3 {
        stroke-width: 26px;
      }

      .cls-4 {
        stroke-width: 21px;
      }
    </style>
  </defs>
  <g>
    <path class="cls-1" d="M267.69,138.79a117.72,117.72,0,1,1-83.23,34.48,117.71,117.71,0,0,1,83.23-34.48m0-25.28a143,143,0,1,0,143,143A143,143,0,0,0,267.69,113.51Z" transform="translate(-124.7 -99.76)"/>
    <line class="cls-2" x1="142.4" y1="29.71" x2="142.7" y2="47.47"/>
    <line class="cls-2" x1="142.58" y1="266" x2="142.88" y2="283.76"/>
    <line class="cls-2" x1="34.2" y1="159.73" x2="16.44" y2="160.03"/>
    <line class="cls-2" x1="269.62" y1="156.72" x2="251.86" y2="157.02"/>
    <line class="cls-2" x1="56.83" y1="253.23" x2="69.18" y2="240.45"/>
    <line class="cls-2" x1="218.19" y1="77.42" x2="230.54" y2="64.64"/>
    <line class="cls-2" x1="219.19" y1="240.67" x2="231.96" y2="253.01"/>
    <line class="cls-2" x1="58.53" y1="62.34" x2="71.1" y2="74.9"/>
    <circle class="cls-3" cx="204.55" cy="25.99" r="12.75"/>
    <circle class="cls-3" cx="84" cy="25.75" r="12.75"/>
    <circle class="cls-4" cx="144.8" cy="156.74" r="10.5"/>
  </g>
</svg>
