<svg width="500" height="500" viewBox="0 0 500 500" fill="none" xmlns="http://www.w3.org/2000/svg">
<path fill-rule="evenodd" clip-rule="evenodd" d="M250 40C252.761 40 255 42.2386 255 45V92C255 94.7614 252.761 97 250 97C247.239 97 245 94.7614 245 92V45C245 42.2386 247.239 40 250 40ZM45 248C45 245.239 47.2386 243 50 243H97C99.7614 243 102 245.239 102 248C102 250.761 99.7614 253 97 253H50C47.2386 253 45 250.761 45 248ZM255 399C255 396.239 252.761 394 250 394C247.239 394 245 396.239 245 399V446C245 448.761 247.239 451 250 451C252.761 451 255 448.761 255 446V399ZM106.464 391.77C104.512 389.817 104.512 386.651 106.464 384.698L139.698 351.464C141.651 349.512 144.817 349.512 146.77 351.464C148.722 353.417 148.722 356.583 146.77 358.536L113.536 391.77C111.583 393.722 108.417 393.722 106.464 391.77ZM113.536 104.464C111.583 102.512 108.417 102.512 106.464 104.464C104.512 106.417 104.512 109.583 106.464 111.536L139.698 144.77C141.651 146.722 144.817 146.722 146.77 144.77C148.722 142.817 148.722 139.651 146.77 137.698L113.536 104.464ZM455 248C455 245.239 452.761 243 450 243H403C400.239 243 398 245.239 398 248C398 250.761 400.239 253 403 253H450C452.761 253 455 250.761 455 248ZM394.769 384.698C396.722 386.651 396.722 389.817 394.769 391.77C392.817 393.722 389.651 393.722 387.698 391.77L354.464 358.536C352.512 356.583 352.512 353.417 354.464 351.464C356.417 349.512 359.583 349.512 361.535 351.464L394.769 384.698ZM394.769 104.464C392.817 102.512 389.651 102.512 387.698 104.464L354.464 137.698C352.512 139.651 352.512 142.817 354.464 144.77C356.417 146.722 359.583 146.722 361.535 144.77L394.769 111.536C396.722 109.583 396.722 106.417 394.769 104.464ZM250 388C327.32 388 390 325.32 390 248C390 170.68 327.32 108 250 108C172.68 108 110 170.68 110 248C110 325.32 172.68 388 250 388Z" fill="#D8D8D8"/>
</svg>
