<svg id="Calque_1" data-name="Calque 1" xmlns="http://www.w3.org/2000/svg" viewBox="0 0 485.95 420.42">
  <defs>
    <style>
      .cls-1, .cls-2, .cls-3 {
        fill: #d8d8d8;
      }

      .cls-2, .cls-3 {
        stroke: #d8d8d8;
        stroke-linejoin: round;
      }

      .cls-2 {
        stroke-width: 37px;
      }

      .cls-3 {
        stroke-width: 21px;
      }
    </style>
  </defs>
  <path class="cls-1" d="M256.2,87.58c3.73,0,7.45,2.36,10.28,7.07l193.23,322.2C465.37,426.28,461,434,450,434H62.39c-11,0-15.37-7.72-9.71-17.15L245.91,94.65c2.83-4.71,6.56-7.07,10.29-7.07m0-37c-16.91,0-32.62,9.36-42,25L21,397.82c-9.6,16-10.3,34.47-1.86,49.37S43.72,471,62.39,471H450c18.67,0,34.86-8.9,43.3-23.81s7.75-33.36-1.86-49.37L298.21,75.62c-9.4-15.68-25.11-25-42-25Z" transform="translate(-13.22 -50.58)"/>
  <polygon class="cls-2" points="230.28 122.42 255.78 122.42 243.03 276.42 230.28 122.42"/>
  <circle class="cls-3" cx="244.28" cy="344.92" r="17.5"/>
</svg>
