<svg id="Calque_1" data-name="Calque 1" xmlns="http://www.w3.org/2000/svg" viewBox="0 0 305.33 306.71">
  <defs>
    <style>
      .cls-1, .cls-2 {
        fill: #d8d8d8;
      }

      .cls-2, .cls-3, .cls-4, .cls-5, .cls-6, .cls-7 {
        stroke: #d8d8d8;
        stroke-miterlimit: 10;
      }

      .cls-2 {
        stroke-width: 69px;
      }

      .cls-3, .cls-4, .cls-5, .cls-6, .cls-7 {
        fill: none;
      }

      .cls-4, .cls-5, .cls-6, .cls-7 {
        stroke-linecap: round;
      }

      .cls-4 {
        stroke-width: 22px;
      }

      .cls-5, .cls-6, .cls-7 {
        stroke-width: 25px;
      }

      .cls-6 {
        opacity: 0.75;
      }

      .cls-7 {
        opacity: 0.5;
      }
    </style>
  </defs>
  <path class="cls-1" d="M268.05,246.82a28.28,28.28,0,1,1-28.28,28.28,28.28,28.28,0,0,1,28.28-28.28m0-24.1a52.38,52.38,0,1,0,52.37,52.38A52.37,52.37,0,0,0,268.05,222.72Z" transform="translate(-23.1 -30.16)"/>
  <path class="cls-2" d="M267.87,222.9" transform="translate(-23.1 -30.16)"/>
  <g>
    <path class="cls-1" d="M252.41,226.44a2.84,2.84,0,0,0,2.18,3.38,2.8,2.8,0,0,0,.71.06h24.1a2.91,2.91,0,0,0,3-2.8,3.56,3.56,0,0,0-.05-.65l-1.75-11.25a4.21,4.21,0,0,0-4-3.45H258.45a4.3,4.3,0,0,0-4.09,3.44Z" transform="translate(-23.1 -30.16)"/>
    <path class="cls-3" d="M252.41,226.44a2.84,2.84,0,0,0,2.18,3.38,2.8,2.8,0,0,0,.71.06h24.1a2.91,2.91,0,0,0,3-2.8,3.56,3.56,0,0,0-.05-.65l-1.75-11.25a4.21,4.21,0,0,0-4-3.45H258.45a4.3,4.3,0,0,0-4.09,3.44Z" transform="translate(-23.1 -30.16)"/>
  </g>
  <g>
    <path class="cls-1" d="M313.21,260.18a2.84,2.84,0,0,0-3.38,2.18,2.8,2.8,0,0,0-.06.71v24.09a2.91,2.91,0,0,0,2.8,3,2.81,2.81,0,0,0,.65-.05l11.26-1.73a4.22,4.22,0,0,0,3.45-4V266.21a4.32,4.32,0,0,0-3.44-4.08Z" transform="translate(-23.1 -30.16)"/>
    <path class="cls-3" d="M313.21,260.18a2.84,2.84,0,0,0-3.38,2.18,2.8,2.8,0,0,0-.06.71v24.09a2.91,2.91,0,0,0,2.8,3,2.81,2.81,0,0,0,.65-.05l11.26-1.73a4.22,4.22,0,0,0,3.45-4V266.21a4.32,4.32,0,0,0-3.44-4.08Z" transform="translate(-23.1 -30.16)"/>
  </g>
  <g>
    <path class="cls-1" d="M221.14,290.06a2.85,2.85,0,0,0,3.38-2.19,2.8,2.8,0,0,0,.06-.71V263.07a2.91,2.91,0,0,0-2.81-3,3.45,3.45,0,0,0-.64.05l-11.25,1.73a4.2,4.2,0,0,0-3.45,4V284a4.32,4.32,0,0,0,3.43,4.09Z" transform="translate(-23.1 -30.16)"/>
    <path class="cls-3" d="M221.14,290.06a2.85,2.85,0,0,0,3.38-2.19,2.8,2.8,0,0,0,.06-.71V263.07a2.91,2.91,0,0,0-2.81-3,3.45,3.45,0,0,0-.64.05l-11.25,1.73a4.2,4.2,0,0,0-3.45,4V284a4.32,4.32,0,0,0,3.43,4.09Z" transform="translate(-23.1 -30.16)"/>
  </g>
  <g>
    <path class="cls-1" d="M282.19,321.65a2.84,2.84,0,0,0-2.18-3.37,2.52,2.52,0,0,0-.72-.07H255.2a2.92,2.92,0,0,0-3,2.81,3.45,3.45,0,0,0,.05.64L254,332.92a4.22,4.22,0,0,0,4,3.45h18.16a4.31,4.31,0,0,0,4.08-3.44Z" transform="translate(-23.1 -30.16)"/>
    <path class="cls-3" d="M282.19,321.65a2.84,2.84,0,0,0-2.18-3.37,2.52,2.52,0,0,0-.72-.07H255.2a2.92,2.92,0,0,0-3,2.81,3.45,3.45,0,0,0,.05.64L254,332.92a4.22,4.22,0,0,0,4,3.45h18.16a4.31,4.31,0,0,0,4.08-3.44Z" transform="translate(-23.1 -30.16)"/>
  </g>
  <g>
    <path class="cls-1" d="M290.42,231.18a2.84,2.84,0,0,0-.85,3.93,3.05,3.05,0,0,0,.46.55l17,17a2.91,2.91,0,0,0,4.11.16,3.43,3.43,0,0,0,.43-.5l6.73-9.19a4.21,4.21,0,0,0-.4-5.28l-12.85-12.83a4.3,4.3,0,0,0-5.32-.46Z" transform="translate(-23.1 -30.16)"/>
    <path class="cls-3" d="M290.42,231.18a2.84,2.84,0,0,0-.85,3.93,3.05,3.05,0,0,0,.46.55l17,17a2.91,2.91,0,0,0,4.11.16,3.43,3.43,0,0,0,.43-.5l6.73-9.19a4.21,4.21,0,0,0-.4-5.28l-12.85-12.83a4.3,4.3,0,0,0-5.32-.46Z" transform="translate(-23.1 -30.16)"/>
  </g>
  <g>
    <path class="cls-1" d="M224.37,249.17a2.84,2.84,0,0,0,3.94.84,2.63,2.63,0,0,0,.54-.46l17-17a2.91,2.91,0,0,0-.35-4.54l-9.17-6.73a4.21,4.21,0,0,0-5.29.41l-12.83,12.83a4.31,4.31,0,0,0-.46,5.33Z" transform="translate(-23.1 -30.16)"/>
    <path class="cls-3" d="M224.37,249.17a2.84,2.84,0,0,0,3.94.84,2.63,2.63,0,0,0,.54-.46l17-17a2.91,2.91,0,0,0-.35-4.54l-9.17-6.73a4.21,4.21,0,0,0-5.29.41l-12.83,12.83a4.31,4.31,0,0,0-.46,5.33Z" transform="translate(-23.1 -30.16)"/>
  </g>
  <g>
    <path class="cls-1" d="M245.5,318.71a2.86,2.86,0,0,0,.85-3.94,3.05,3.05,0,0,0-.46-.55l-17-17a2.91,2.91,0,0,0-4.12-.14,3.23,3.23,0,0,0-.41.49l-6.72,9.18A4.21,4.21,0,0,0,218,312l12.83,12.85a4.31,4.31,0,0,0,5.32.45Z" transform="translate(-23.1 -30.16)"/>
    <path class="cls-3" d="M245.5,318.71a2.86,2.86,0,0,0,.85-3.94,3.05,3.05,0,0,0-.46-.55l-17-17a2.91,2.91,0,0,0-4.12-.14,3.23,3.23,0,0,0-.41.49l-6.72,9.18A4.21,4.21,0,0,0,218,312l12.83,12.85a4.31,4.31,0,0,0,5.32.45Z" transform="translate(-23.1 -30.16)"/>
  </g>
  <g>
    <path class="cls-1" d="M311.55,297.58a2.86,2.86,0,0,0-3.94-.85,2.63,2.63,0,0,0-.54.46l-17,17a2.92,2.92,0,0,0-.14,4.12,2.79,2.79,0,0,0,.49.42l9.19,6.74a4.2,4.2,0,0,0,5.28-.41l12.84-12.84a4.3,4.3,0,0,0,.46-5.32Z" transform="translate(-23.1 -30.16)"/>
    <path class="cls-3" d="M311.55,297.58a2.86,2.86,0,0,0-3.94-.85,2.63,2.63,0,0,0-.54.46l-17,17a2.92,2.92,0,0,0-.14,4.12,2.79,2.79,0,0,0,.49.42l9.19,6.74a4.2,4.2,0,0,0,5.28-.41l12.84-12.84a4.3,4.3,0,0,0,.46-5.32Z" transform="translate(-23.1 -30.16)"/>
  </g>
  <path class="cls-4" d="M298.87,184.65V71.16a30.09,30.09,0,0,0-30-30H64.1a30.09,30.09,0,0,0-30,30V275.94a30.09,30.09,0,0,0,30,30H179.65" transform="translate(-23.1 -30.16)"/>
  <circle class="cls-5" cx="66.87" cy="68.42" r="12"/>
  <circle class="cls-6" cx="132.29" cy="68.42" r="12"/>
  <circle class="cls-7" cx="197.58" cy="68.42" r="12"/>
</svg>
