<svg id="Calque_1" data-name="Calque 1" xmlns="http://www.w3.org/2000/svg" viewBox="0 0 448 337">
  <defs>
    <style>
      .cls-1 {
        fill: #d8d8d8;
      }

      .cls-2 {
        opacity: 0.5;
      }

      .cls-3, .cls-4 {
        fill: none;
        stroke: #d8d8d8;
        stroke-miterlimit: 10;
      }

      .cls-3 {
        stroke-width: 27px;
      }

      .cls-4 {
        stroke-width: 28px;
      }

      .cls-5 {
        opacity: 0.25;
      }
    </style>
  </defs>
  <path class="cls-1" d="M164,104v57H141V104h23m2-22H139a20.06,20.06,0,0,0-20,20v61a20.06,20.06,0,0,0,20,20h27a20.06,20.06,0,0,0,20-20V102a20.06,20.06,0,0,0-20-20Z" transform="translate(-31 -82)"/>
  <path class="cls-1" d="M271,104v57H248V104h23m2-22H246a20.06,20.06,0,0,0-20,20v61a20.06,20.06,0,0,0,20,20h27a20.06,20.06,0,0,0,20-20V102a20.06,20.06,0,0,0-20-20Z" transform="translate(-31 -82)"/>
  <path class="cls-1" d="M372,104v57H349V104h23m2-22H347a20.06,20.06,0,0,0-20,20v61a20.06,20.06,0,0,0,20,20h27a20.06,20.06,0,0,0,20-20V102a20.06,20.06,0,0,0-20-20Z" transform="translate(-31 -82)"/>
  <path class="cls-1" d="M131.22,213a4.05,4.05,0,0,1,4,4v32.22a4.05,4.05,0,0,1-4,4H99a4.05,4.05,0,0,1-4-4V217a4.05,4.05,0,0,1,4-4h32.22m0-16H99a20.06,20.06,0,0,0-20,20v32.22a20.06,20.06,0,0,0,20,20h32.22a20.06,20.06,0,0,0,20-20V217a20.06,20.06,0,0,0-20-20Z" transform="translate(-31 -82)"/>
  <g class="cls-2">
    <path class="cls-1" d="M297.64,213a4.06,4.06,0,0,1,4,4v32.22a4.06,4.06,0,0,1-4,4H265.42a4.05,4.05,0,0,1-4-4V217a4.05,4.05,0,0,1,4-4h32.22m0-16H265.42a20.06,20.06,0,0,0-20,20v32.22a20.06,20.06,0,0,0,20,20h32.22a20.06,20.06,0,0,0,20-20V217a20.06,20.06,0,0,0-20-20Z" transform="translate(-31 -82)"/>
  </g>
  <line class="cls-3" x1="310" y1="34" x2="251.58" y2="34"/>
  <path class="cls-4" d="M130,116H65a20.06,20.06,0,0,0-20,20V385a20.06,20.06,0,0,0,20,20H445a20.06,20.06,0,0,0,20-20V136a20.06,20.06,0,0,0-20-20H379" transform="translate(-31 -82)"/>
  <line class="cls-3" x1="206" y1="34" x2="145.61" y2="34"/>
  <g class="cls-5">
    <path class="cls-1" d="M380,213a4.05,4.05,0,0,1,4,4v32.21a4.05,4.05,0,0,1-4,4H347.78a4.05,4.05,0,0,1-4-4V217a4.05,4.05,0,0,1,4-4H380m0-16H347.78a20.06,20.06,0,0,0-20,20v32.21a20.06,20.06,0,0,0,20,20H380a20.06,20.06,0,0,0,20-20V217a20.06,20.06,0,0,0-20-20Z" transform="translate(-31 -82)"/>
  </g>
  <path class="cls-1" d="M215.29,213a4.05,4.05,0,0,1,4,4v32.21a4.05,4.05,0,0,1-4,4H183.07a4.06,4.06,0,0,1-4-4V217a4.06,4.06,0,0,1,4-4h32.22m0-16H183.07a20.06,20.06,0,0,0-20,20v32.21a20.06,20.06,0,0,0,20,20h32.22a20.06,20.06,0,0,0,20-20V217a20.06,20.06,0,0,0-20-20Z" transform="translate(-31 -82)"/>
</svg>
