<svg id="Calque_1" data-name="Calque 1" xmlns="http://www.w3.org/2000/svg" viewBox="0 0 427.65 386.12">
  <defs>
    <style>
      .cls-1 {
        fill: #d8d8d8;
      }
    </style>
  </defs>
  <path class="cls-1" d="M134,110.48a46,46,0,1,1-46-46A46,46,0,0,1,134,110.48Z" transform="translate(-42.02 -59.38)"/>
  <path class="cls-1" d="M134,399.52a46,46,0,1,1-46-46A46,46,0,0,1,134,399.52Z" transform="translate(-42.02 -59.38)"/>
  <path class="cls-1" d="M134,255a46,46,0,1,1-46-46A46,46,0,0,1,134,255Z" transform="translate(-42.02 -59.38)"/>
  <path class="cls-1" d="M301.67,105.37a46,46,0,1,1-46-46A46,46,0,0,1,301.67,105.37Z" transform="translate(-42.02 -59.38)"/>
  <path class="cls-1" d="M301.67,394.41a46,46,0,1,1-46-46A46,46,0,0,1,301.67,394.41Z" transform="translate(-42.02 -59.38)"/>
  <path class="cls-1" d="M301.67,249.89a46,46,0,1,1-46-46A46,46,0,0,1,301.67,249.89Z" transform="translate(-42.02 -59.38)"/>
  <path class="cls-1" d="M469.67,105.37a46,46,0,1,1-46-46A46,46,0,0,1,469.67,105.37Z" transform="translate(-42.02 -59.38)"/>
  <path class="cls-1" d="M469.67,394.41a46,46,0,1,1-46-46A46,46,0,0,1,469.67,394.41Z" transform="translate(-42.02 -59.38)"/>
  <path class="cls-1" d="M469.67,249.89a46,46,0,1,1-46-46A46,46,0,0,1,469.67,249.89Z" transform="translate(-42.02 -59.38)"/>
</svg>
