<svg id="Calque_1" data-name="Calque 1" xmlns="http://www.w3.org/2000/svg" viewBox="0 0 456.12 473.98">
  <defs>
    <style>
      .cls-1 {
        fill: none;
        stroke: #d8d8d8;
        stroke-linejoin: round;
        stroke-width: 35px;
      }
    </style>
  </defs>
  <g>
    <path class="cls-1" d="M456.78,152.81a30.09,30.09,0,0,0-30-30H317c-16.5,0-30,12.24-30,27.21s10.23,27.21,22.74,27.21,22.75,13.35,22.75,29.66-10.24,29.65-22.75,29.65S287,249.15,287,264.56s-11.34,28.34-25.2,28.72-25-10.1-24.79-23.28-13.09-24-29.59-24h-1.74c-16.5,0-30.18,10.78-30.41,24s-12.47,24-27.21,24-26.81,13.5-26.81,30V433.75a30.09,30.09,0,0,0,30,30H257c16.5,0,30,.06,30,.13s13.5.12,30,.12H426.78a30.09,30.09,0,0,0,30-30Z" transform="translate(-18.16 -7.52)"/>
    <path class="cls-1" d="M232.84,53c-9.89-13.11-26-18-35.78-10.89s-24.82,3.63-33.41-7.75-26.39-12.56-39.56-2.62L47.56,89.53a30.09,30.09,0,0,0-5.88,42l62.76,83.15c9.94,13.17,27,17.17,38,8.89s14-23,6.7-32.61-3.48-24.93,8.47-33.95,27.7-8.5,35,1.16,22.49,10.58,33.79,2.05,13.41-25,4.69-36.5S223.23,96.91,233,89.79,242.73,66.13,232.84,53Z" transform="translate(-18.16 -7.52)"/>
  </g>
</svg>
