<svg id="Calque_1" data-name="Calque 1" xmlns="http://www.w3.org/2000/svg" viewBox="0 0 360 431">
  <defs>
    <style>
      .cls-1 {
        fill: none;
        stroke: #d8d8d8;
        stroke-linecap: round;
        stroke-linejoin: round;
        stroke-width: 40px;
      }

      .cls-2 {
        fill: #d8d8d8;
      }
    </style>
  </defs>
  <g>
    <path class="cls-1" d="M173.5,206.5A166.86,166.86,0,0,1,139,172C110.44,133.1,100.26,88.7,96,61H416c-2.73,28.92-10.41,69.87-34.53,106-34.14,51.16-82,63.84-129.51,78.86C211,258.8,170.34,273.47,139,316,120.82,340.56,100.53,381.53,96,452H416c-3.65-67.38-22.79-106-37.89-128-14.31-20.82-23.83-27.67-41.61-38.5" transform="translate(-76 -41)"/>
    <g>
      <path class="cls-2" d="M182,401c-8.85,0-12.27-5.18-13.34-7.41s-2.93-8.14,2.62-15c4-4.9,14-16.55,21.94-19.13a105.12,105.12,0,0,0,17.23-7.69,23.68,23.68,0,0,0,3.76-2.64c5.28-4.44,7.41-8.92,9.66-13.67,2.76-5.8,5.88-12.37,14.1-16.49A29.52,29.52,0,0,1,251.3,316c9.12,0,17.38,3.39,20.5,4.84a46,46,0,0,1,8.2,5,58.54,58.54,0,0,0,9.95,6.05,54.88,54.88,0,0,0,5.91,2.51,40.12,40.12,0,0,1,6.36,2.87c9.89,5.55,15.32,13.16,18.56,17.71l.53.74c4,5.63,16,18.37,20.25,22.8,6.3,6.56,4.72,12.58,3.75,14.86S341.09,401,332,401Z" transform="translate(-76 -41)"/>
      <path class="cls-2" d="M251.3,325c7.81,0,15.21,3.31,16.7,4,6.22,2.9,7.63,5.93,18,11,6.52,3.19,7.62,2.8,11.82,5.15C306.45,350,311,356.75,314,361c5.31,7.4,21.07,23.79,21.07,23.79,3.81,4,2.43,7.21-3.07,7.21H182c-5.5,0-7.17-3.5-3.72-7.78,0,0,11.47-14.19,17.72-16.22a114.5,114.5,0,0,0,18.78-8.36A32.54,32.54,0,0,0,220,356c13.6-11.43,11.13-23.56,22-29a20.61,20.61,0,0,1,9.3-2m0-18a38.32,38.32,0,0,0-17.36,3.91c-11,5.5-15.16,14.27-18.2,20.67-2.05,4.33-3.54,7.46-7.32,10.64a14.88,14.88,0,0,1-2.31,1.64,97,97,0,0,1-15.67,7c-9.37,3-19.39,13.66-26.16,22-6.09,7.54-7.49,16.72-3.74,24.56S172.31,410,182,410H332c10,0,18.1-4.88,21.59-13.07s1.41-17.38-5.54-24.61c-5.75-6-16.11-17.2-19.43-21.82l-.51-.72c-3.44-4.82-9.85-13.8-21.49-20.33A47.62,47.62,0,0,0,299,326a47.07,47.07,0,0,1-5.06-2.16,49.22,49.22,0,0,1-8.62-5.24,55.19,55.19,0,0,0-9.69-5.91C271.93,311,262.21,307,251.3,307Z" transform="translate(-76 -41)"/>
    </g>
  </g>
</svg>
