<svg id="Calque_1" data-name="Calque 1" xmlns="http://www.w3.org/2000/svg" viewBox="0 0 359.37 436.67">
  <defs>
    <style>
      .cls-1 {
        fill: #fff;
      }
    </style>
  </defs>
  <path class="cls-1" d="M167.57,105.67c3,0,6.42,1.18,10.08,3.67l194.2,132.57c11.36,7.75,11.36,20.43,0,28.18L177.65,402.66c-3.66,2.49-7.1,3.67-10.08,3.67-6.3,0-10.57-5.26-10.57-14.58V120.25c0-9.33,4.27-14.58,10.57-14.58m0-68a76.87,76.87,0,0,0-62.1,31.06C94.7,83.14,89,101,89,120.25v271.5c0,19.3,5.7,37.11,16.47,51.52a76.87,76.87,0,0,0,62.1,31.06c16.8,0,33.54-5.36,48.41-15.51L410.19,326.26a88.55,88.55,0,0,0,26.58-28.14,82.27,82.27,0,0,0,0-84.24,88.55,88.55,0,0,0-26.58-28.14L216,53.18C201.11,43,184.37,37.67,167.57,37.67Z" transform="translate(-89 -37.67)"/>
</svg>
