<svg id="Calque_1" data-name="Calque 1" xmlns="http://www.w3.org/2000/svg" viewBox="0 0 354.76 354.52"><defs><style>.cls-1{fill:#fff;}</style></defs><path class="cls-1" d="M256,164a92,92,0,1,1-92,92,92.1,92.1,0,0,1,92-92m0-58A150,150,0,1,0,406,256,150,150,0,0,0,256,106Z" transform="translate(-78.31 -78.4)"/><polygon class="cls-1" points="162.87 39.65 170.24 26.44 185.35 26.22 193.1 39.2 185.74 52.4 170.62 52.62 162.87 39.65"/><polygon class="cls-1" points="199.98 0 154.84 0.67 132.85 40.09 156 78.84 201.13 78.18 223.12 38.76 199.98 0 199.98 0"/><polygon class="cls-1" points="163.26 315.33 170.63 302.12 185.74 301.9 193.5 314.88 186.13 328.08 171.01 328.31 163.26 315.33"/><polygon class="cls-1" points="200.37 275.68 155.23 276.35 133.24 315.77 156.39 354.52 201.52 353.86 223.51 314.44 200.37 275.68 200.37 275.68"/><polygon class="cls-1" points="26.36 179.09 26.74 163.98 40.01 156.75 52.91 164.63 52.54 179.74 39.27 186.97 26.36 179.09"/><polygon class="cls-1" points="40.75 126.73 1.12 148.33 0 193.46 38.52 216.98 78.16 195.39 79.28 150.26 40.75 126.73 40.75 126.73"/><polygon class="cls-1" points="301.85 189.58 302.22 174.47 315.49 167.23 328.39 175.11 328.02 190.23 314.75 197.46 301.85 189.58"/><polygon class="cls-1" points="316.24 137.22 276.6 158.82 275.48 203.94 314 227.47 353.64 205.88 354.76 160.75 316.24 137.22 316.24 137.22"/><polygon class="cls-1" points="78.3 80.38 75.62 65.5 87.17 55.74 101.39 60.87 104.07 75.75 92.52 85.5 78.3 80.38"/><polygon class="cls-1" points="81.86 26.2 47.38 55.32 55.36 99.75 97.83 115.05 132.31 85.92 124.33 41.49 81.86 26.2 81.86 26.2"/><polygon class="cls-1" points="253.37 293.34 250.69 278.46 262.24 268.7 276.46 273.83 279.14 288.71 267.59 298.46 253.37 293.34"/><polygon class="cls-1" points="256.93 239.15 222.45 268.28 230.43 312.71 272.9 328.01 307.38 298.88 299.4 254.45 256.93 239.15 256.93 239.15"/><polygon class="cls-1" points="257.05 80.96 260.27 66.19 274.67 61.58 285.86 71.75 282.64 86.53 268.24 91.13 257.05 80.96"/><polygon class="cls-1" points="281.05 32.25 238.05 45.99 228.46 90.1 261.86 120.46 304.86 106.72 314.45 62.61 281.05 32.25 281.05 32.25"/><polygon class="cls-1" points="68.9 282.45 72.12 267.68 86.52 263.08 97.7 273.25 94.49 288.02 80.09 292.62 68.9 282.45"/><polygon class="cls-1" points="92.9 233.74 49.9 247.49 40.31 291.59 73.71 321.96 116.7 308.21 126.3 264.11 92.9 233.74 92.9 233.74"/></svg>