<svg width="500" height="500" viewBox="0 0 500 500" fill="none" xmlns="http://www.w3.org/2000/svg">
<path fill-rule="evenodd" clip-rule="evenodd" d="M421 249.515C421 225.411 416.726 202.305 408.893 180.915C397.983 151.118 380.17 124.649 357.389 103.445C321.765 70.2845 273.994 50 221.485 50C219.287 50 217.097 50.0356 214.915 50.1061C203.43 50.4777 192.191 51.8199 181.276 54.0534C179.948 54.3251 178.625 54.61 177.307 54.908C177.229 54.9257 177.15 54.9435 177.072 54.9613L183.159 58.0048C183.217 57.9932 183.276 57.9816 183.334 57.97C239.37 87.7976 277.519 146.797 277.519 214.706C277.519 312.704 198.076 392.147 100.078 392.147C95.9044 392.147 91.7643 392.003 87.6626 391.719C87.4591 391.527 87.256 391.335 87.0533 391.143L80 390.185C80.3132 390.5 80.6274 390.814 80.9426 391.127C100.866 410.901 124.939 426.499 151.741 436.5L151.885 436.554C169.117 442.969 187.475 447.07 206.581 448.481C211.502 448.845 216.472 449.03 221.485 449.03C252.476 449.03 281.816 441.964 307.983 429.355C343.791 412.101 373.656 384.468 393.675 350.358C411.042 320.768 421 286.304 421 249.515ZM208.75 437.568C208.75 439.895 208.471 442.157 207.943 444.322C188.5 442.991 169.838 438.812 152.373 432.201C154.882 419.059 166.436 409.127 180.309 409.127C196.016 409.127 208.75 421.86 208.75 437.568ZM314.907 421.029C345.498 404.331 371.129 379.687 389.027 349.872C387.389 349.756 385.736 349.697 384.068 349.697C345.854 349.697 314.875 380.676 314.875 418.89C314.875 419.606 314.886 420.318 314.907 421.029ZM400.071 170.418C389.837 147.344 375.261 126.623 357.382 109.292C358.495 136.917 375.804 160.372 400.071 170.418ZM314.875 277.107C314.875 282.968 310.124 287.72 304.263 287.72C298.401 287.72 293.65 282.968 293.65 277.107C293.65 271.246 298.401 266.495 304.263 266.495C310.124 266.495 314.875 271.246 314.875 277.107ZM328.884 192.632C338.965 192.632 347.137 184.459 347.137 174.378C347.137 164.297 338.965 156.125 328.884 156.125C318.802 156.125 310.63 164.297 310.63 174.378C310.63 184.459 318.802 192.632 328.884 192.632Z" fill="#555555"/>
</svg>
