<svg id="Calque_1" data-name="Calque 1" xmlns="http://www.w3.org/2000/svg" viewBox="0 0 421.47 456.55">
  <defs>
    <style>
      .cls-1, .cls-2 {
        fill: none;
        stroke: #3b3e4b;
        stroke-miterlimit: 10;
      }

      .cls-1 {
        stroke-width: 31px;
      }

      .cls-2 {
        stroke-width: 47px;
      }
    </style>
  </defs>
  <path class="cls-1" d="M557,259.12" transform="translate(-38.84 -25.08)"/>
  <path class="cls-2" d="M291.88,193.76c-1.3-1.23-2.46-4.49-2.57-7.24l-2.38-58a15.42,15.42,0,0,1,2.95-8.88L344,52.81c1.73-2.14.9-4-1.85-4.1,0,0-72.13-3.1-107.28,21.19-35.42,24.49-44.06,148.25-44.06,148.25a16.86,16.86,0,0,1-3.71,8.69l-117,135.63a49.45,49.45,0,0,0-5.74,8.1l19.71,56.64A49.56,49.56,0,0,0,91,434.37l12,9.8a48.14,48.14,0,0,0,8.4,5.27l59.5,7.57a50.06,50.06,0,0,0,6.74-7.29l108.5-142.49a16.87,16.87,0,0,1,7.74-5.42S413.2,267.76,429.84,228c16.49-39.41-1.46-109.34-1.46-109.34-.68-2.67-2.66-3.1-4.39-1l-54.16,66.8a13.9,13.9,0,0,1-8.12,4.41l-62.49,6.53C296.48,195.77,293.18,195,291.88,193.76Z" transform="translate(-38.84 -25.08)"/>
</svg>
